<?xml version="1.0" encoding="UTF-8"?>
<!DOCTYPE svg PUBLIC "-//W3C//DTD SVG 1.1//EN" "http://www.w3.org/Graphics/SVG/1.1/DTD/svg11.dtd">
<svg xmlns="http://www.w3.org/2000/svg" version="1.1" width="128px" height="128px" style="shape-rendering:geometricPrecision; text-rendering:geometricPrecision; image-rendering:optimizeQuality; fill-rule:evenodd; clip-rule:evenodd" xmlns:xlink="http://www.w3.org/1999/xlink">
<g><path style="opacity:0.978" fill="#a1edf7" d="M 94.5,-0.5 C 96.5,-0.5 98.5,-0.5 100.5,-0.5C 103.022,5.72789 105.355,12.0612 107.5,18.5C 114.082,21.3611 120.749,24.0277 127.5,26.5C 127.5,28.5 127.5,30.5 127.5,32.5C 121.272,35.0215 114.939,37.3549 108.5,39.5C 105.715,45.6808 103.215,52.0141 101,58.5C 98.9361,59.5914 96.7695,59.7581 94.5,59C 91.8769,52.9668 89.5436,46.8002 87.5,40.5C 81.3192,37.7154 74.9859,35.2154 68.5,33C 67.1667,30.6667 67.1667,28.3333 68.5,26C 74.9859,23.7846 81.3192,21.2846 87.5,18.5C 89.6451,12.0612 91.9785,5.72789 94.5,-0.5 Z"/></g>
<g><path style="opacity:0.966" fill="#28b6f5" d="M 16.5,17.5 C 22.9049,16.4062 25.2382,19.0729 23.5,25.5C 30.6593,23.8203 32.9926,26.3203 30.5,33C 28.1902,33.4966 25.8568,33.6633 23.5,33.5C 25.1797,40.6593 22.6797,42.9926 16,40.5C 15.5034,38.1902 15.3367,35.8568 15.5,33.5C 8.34074,35.1797 6.0074,32.6797 8.5,26C 10.8098,25.5034 13.1432,25.3367 15.5,25.5C 15.2786,22.7212 15.612,20.0545 16.5,17.5 Z"/></g>
<g><path style="opacity:0.972" fill="#28ddf5" d="M -0.5,77.5 C -0.5,74.8333 -0.5,72.1667 -0.5,69.5C 10.2556,64.1353 21.5889,60.1353 33.5,57.5C 36.1547,47.0341 39.3214,36.7008 43,26.5C 47.3333,22.5 51.6667,22.5 56,26.5C 59.6786,36.7008 62.8453,47.0341 65.5,57.5C 75.9659,60.1547 86.2992,63.3214 96.5,67C 100.5,71.3333 100.5,75.6667 96.5,80C 86.2992,83.6786 75.9659,86.8453 65.5,89.5C 62.8453,99.9659 59.6786,110.299 56,120.5C 51.6667,124.5 47.3333,124.5 43,120.5C 39.3214,110.299 36.1547,99.9659 33.5,89.5C 21.5889,86.8647 10.2556,82.8647 -0.5,77.5 Z"/></g>
<g><path style="opacity:0.943" fill="#29f5b7" d="M 102.5,127.5 C 100.5,127.5 98.5,127.5 96.5,127.5C 94.6452,123.274 92.9786,118.94 91.5,114.5C 87.3232,112.383 82.9899,110.549 78.5,109C 77.1667,106.667 77.1667,104.333 78.5,102C 82.4612,100.402 86.4612,98.9017 90.5,97.5C 92.6173,93.3232 94.4506,88.9899 96,84.5C 98.3333,83.1667 100.667,83.1667 103,84.5C 104.598,88.4612 106.098,92.4612 107.5,96.5C 111.677,98.6173 116.01,100.451 120.5,102C 121.833,104.333 121.833,106.667 120.5,109C 116.01,110.549 111.677,112.383 107.5,114.5C 106.021,118.94 104.355,123.274 102.5,127.5 Z"/></g>
</svg>
